<svg width="111" height="110" viewBox="0 0 111 110" fill="none" xmlns="http://www.w3.org/2000/svg">
<g clip-path="url(#clip0_1_503)">
<path d="M37.1668 110C47.2868 110 55.5002 101.787 55.5002 91.6667V73.3333H37.1668C27.0468 73.3333 18.8335 81.5467 18.8335 91.6667C18.8335 101.787 27.0468 110 37.1668 110Z" fill="#0ACF83"/>
<path d="M18.8335 55C18.8335 44.88 27.0468 36.6667 37.1668 36.6667H55.5002V73.3333H37.1668C27.0468 73.3333 18.8335 65.12 18.8335 55Z" fill="#A259FF"/>
<path d="M18.8335 18.3333C18.8335 8.21333 27.0468 0 37.1668 0H55.5002V36.6667H37.1668C27.0468 36.6667 18.8335 28.4533 18.8335 18.3333Z" fill="#F24E1E"/>
<path d="M55.5 0H73.8333C83.9533 0 92.1667 8.21333 92.1667 18.3333C92.1667 28.4533 83.9533 36.6667 73.8333 36.6667H55.5V0Z" fill="#FF7262"/>
<path d="M92.1667 55C92.1667 65.12 83.9533 73.3333 73.8333 73.3333C63.7133 73.3333 55.5 65.12 55.5 55C55.5 44.88 63.7133 36.6667 73.8333 36.6667C83.9533 36.6667 92.1667 44.88 92.1667 55Z" fill="#1ABCFE"/>
</g>
<defs>
<clipPath id="clip0_1_503">
<rect width="110" height="110" fill="white" transform="translate(0.5)"/>
</clipPath>
</defs>
</svg>
