<svg width="111" height="110" viewBox="0 0 111 110" fill="none" xmlns="http://www.w3.org/2000/svg">
<path d="M15.8314 99.0046L7.00391 0H103.996L95.1597 98.9908L55.4406 110L15.8314 99.0046Z" fill="#E44D26"/>
<path d="M55.5 101.585L87.5925 92.6842L95.1458 8.09416H55.5V101.585Z" fill="#F16529"/>
<path d="M55.4998 44.8158H39.4352L38.3215 32.3812H55.4998V20.2354H25.0527L25.3415 23.4942L28.3252 56.9525H55.4998V44.8158ZM55.4998 76.3492L55.4448 76.3629L41.924 72.71L41.0577 63.0254H28.8707L30.5711 82.0921L55.4448 88.9992L55.4998 88.9808V76.3492Z" fill="#EBEBEB"/>
<path d="M55.459 44.8158V56.9571H70.4144L69.0027 72.7054L55.459 76.3583V88.99L80.3511 82.0921L80.5344 80.0387L83.3898 48.0746L83.6832 44.8112H80.4106L55.459 44.8158ZM55.459 20.2354V32.3812H84.7877L85.0307 29.6496L85.5852 23.4942L85.874 20.2354H55.459Z" fill="white"/>
<path d="M55.5 109.982L55.4404 110H55.5V109.982Z" fill="#DEDEDE"/>
<path d="M55.5002 32.3813H38.3218L39.431 44.8158H55.4543H55.5002V32.3813ZM55.5002 0H7.00391L15.8314 99.0046L55.4406 110L55.5002 109.982V88.9808L55.4452 88.9992L30.5714 82.0921L28.871 63.0254H41.0581L41.9243 72.71L55.4452 76.3629L55.4589 76.3583L55.5002 76.3492V56.9571H28.3256L25.3418 23.4988L25.0531 20.2354H55.4589H55.5002V0Z" fill="#C64321"/>
<path d="M41.0577 63.0254H28.8707L30.5711 82.0921L55.4448 88.9992L55.4998 88.9808L55.4586 88.99V76.3583L55.4448 76.3629L41.924 72.71L41.0577 63.0254ZM55.4586 20.2354H25.0527L25.3415 23.4942L28.3252 56.9525H55.4998H55.4586V44.8158H39.4352L38.3215 32.3812H55.4998H55.4586V20.2354Z" fill="#CDCDCD"/>
<path d="M55.5002 76.3492L55.459 76.3583V88.99L55.5002 88.9808V76.3492ZM55.5002 44.8158H55.459V56.9571H55.5002V44.8158ZM55.5002 20.2354H55.459V32.3812H55.5002V20.2354Z" fill="#DEDEDE"/>
</svg>
