<svg width="101" height="100" viewBox="0 0 101 100" fill="none" xmlns="http://www.w3.org/2000/svg">
<g clip-path="url(#clip0_1_473)">
<path d="M0.5 0H100.5V100H0.5V0Z" fill="#F7DF1E"/>
<path d="M26.7938 83.5672L34.4462 78.9359C35.9228 81.5535 37.2657 83.7684 40.4872 83.7684C43.5751 83.7684 45.5224 82.5606 45.5224 77.8621V45.9098H54.9196V77.9949C54.9196 87.7281 49.2142 92.1586 40.8899 92.1586C33.3724 92.1586 29.0087 88.2652 26.7935 83.5664M60.0239 82.5602L67.6755 78.1301C69.6899 81.4195 72.3079 83.8359 76.9392 83.8359C80.8333 83.8359 83.3161 81.8891 83.3161 79.2039C83.3161 75.982 80.7653 74.8406 76.4692 72.9617L74.1204 71.9539C67.3403 69.0684 62.8431 65.4434 62.8431 57.791C62.8431 50.7426 68.213 45.3723 76.604 45.3723C82.5782 45.3723 86.8743 47.4535 89.9618 52.8906L82.6446 57.5898C81.0333 54.7035 79.2888 53.5625 76.6036 53.5625C73.8513 53.5625 72.106 55.3078 72.106 57.5898C72.106 60.409 73.8513 61.5508 77.8786 63.2961L80.2278 64.3027C88.2161 67.7266 92.7134 71.2168 92.7134 79.0699C92.7134 87.5285 86.0681 92.1598 77.1403 92.1598C68.4142 92.1598 62.7755 87.9981 60.0235 82.5606" fill="black"/>
</g>
<defs>
<clipPath id="clip0_1_473">
<rect width="100" height="100" fill="white" transform="translate(0.5)"/>
</clipPath>
</defs>
</svg>
