<svg width="111" height="110" viewBox="0 0 111 110" fill="none" xmlns="http://www.w3.org/2000/svg">
<path d="M101.002 84.0529C95.1042 83.8922 90.6002 84.4413 86.7493 86.0647C85.6553 86.5262 83.9091 86.5391 83.7303 87.9098C84.3319 88.5397 84.4256 89.4816 84.9034 90.2567C85.8229 91.7435 87.375 93.7389 88.7603 94.7839C90.2745 95.9269 91.8343 97.1481 93.4568 98.1372C96.3425 99.8963 99.5643 100.902 102.343 102.664C103.981 103.704 105.607 105.013 107.205 106.185C107.996 106.765 108.526 107.667 109.553 108.03V107.864C109.013 107.176 108.874 106.233 108.379 105.515L106.199 103.335C104.067 100.506 101.361 98.0203 98.485 95.957C96.1913 94.3104 91.0582 92.0863 90.1018 89.418L89.9342 89.2504C91.5601 89.0665 93.4636 88.4787 94.965 88.0756C97.4864 87.4002 99.7396 87.5746 102.343 86.9026L105.864 85.8963V85.226C104.548 83.8759 103.609 82.0884 102.175 80.8663C98.4196 77.6695 94.3221 74.4752 90.1026 71.8111C87.7617 70.3347 84.8699 69.3748 82.3889 68.1227C81.5544 67.7007 80.0883 67.4816 79.5375 66.7803C78.2338 65.12 77.5248 63.0145 76.5202 61.0801C74.4156 57.0264 72.3488 52.5998 70.4839 48.3347C69.2121 45.4266 68.3811 42.5597 66.7946 39.9506C59.1806 27.4321 50.9856 19.8773 38.29 12.4506C35.5882 10.8711 32.3354 10.248 28.8979 9.43164C27.0546 9.32078 25.2095 9.2082 23.3653 9.09563C22.2386 8.62641 21.0682 7.24883 20.012 6.58024C15.8062 3.92305 5.01761 -1.85625 1.90323 5.74235C-0.0638763 10.5385 4.84316 15.217 6.59714 17.6481C7.82948 19.3514 9.40644 21.2635 10.2864 23.1808C10.8657 24.4415 10.9653 25.7056 11.4612 27.0385C12.6789 30.3231 13.7403 33.8963 15.3172 36.9308C16.1139 38.4674 16.9921 40.0847 18.0002 41.458C18.6172 42.301 19.6768 42.6723 19.8435 43.9734C18.8089 45.4223 18.7496 47.6721 18.1678 49.5077C15.5467 57.7706 16.5358 68.0419 20.348 74.1572C21.5168 76.0358 24.2728 80.062 28.0609 78.5168C31.3746 77.1676 30.6347 72.9842 31.5826 69.294C31.7966 68.4578 31.6651 67.8425 32.0853 67.2822V67.4498L35.1043 73.486C37.3387 77.0842 41.3021 80.844 44.6623 83.3809C46.4043 84.6966 47.7758 86.9705 50.0282 87.7405V87.572H49.8607C49.4241 86.8923 48.7409 86.6104 48.184 86.0638C46.8717 84.7774 45.4125 83.1781 44.328 81.7042C41.2721 77.556 38.5719 73.0159 36.1115 68.2902C34.9359 66.0327 33.9141 63.5439 32.9241 61.2468C32.5425 60.3616 32.5477 59.0219 31.7519 58.5638C30.6665 60.2465 29.0689 61.6077 28.2302 63.5946C26.8887 66.7709 26.716 70.6449 26.2184 74.6617C25.9245 74.7665 26.0551 74.6943 25.8824 74.8284C23.5466 74.2655 22.7267 71.8618 21.8579 69.7984C19.6631 64.582 19.2549 56.1842 21.1868 50.1798C21.6869 48.6252 23.9453 43.7336 23.031 42.2976C22.5944 40.8659 21.1541 40.0374 20.3489 38.9434C19.3511 37.5908 18.356 35.8102 17.6642 34.2478C15.8681 30.1821 15.0293 25.6163 13.1378 21.505C12.2329 19.5396 10.7041 17.5502 9.44855 15.8039C8.05894 13.8677 6.50175 12.442 5.42409 10.102C5.04081 9.27008 4.52089 7.93805 5.08808 7.08297C5.26855 6.50633 5.52464 6.2657 6.09441 6.0775C7.06722 5.32727 9.77597 6.32672 10.7883 6.74695C13.4773 7.86414 15.722 8.92805 18.0002 10.4371C19.0925 11.1624 20.1993 12.5641 21.521 12.9525H23.0301C25.3908 13.4948 28.0351 13.1201 30.2411 13.7904C34.1393 14.9746 37.6326 16.818 40.8046 18.8212C50.4691 24.9245 58.3719 33.611 63.7774 43.9742C64.6471 45.6431 65.0235 47.2347 65.7892 49.005C67.3343 52.574 69.2808 56.2461 70.8182 59.7369C72.3531 63.2191 73.8484 66.7331 76.0175 69.6309C77.1578 71.1537 81.5613 71.9709 83.5636 72.8174C84.9661 73.4095 87.265 74.0283 88.5944 74.8284C91.1321 76.3598 93.5917 78.1825 95.973 79.86C97.1615 80.6979 100.82 82.5378 101.002 84.0529ZM26.0482 20.1661C24.8185 20.1429 23.9488 20.3002 23.0292 20.5004V20.668H23.1968C23.7838 21.8728 24.8193 22.6497 25.5438 23.687C26.1024 24.8617 26.6618 26.0348 27.2213 27.2078L27.388 27.042C28.427 26.3089 28.9022 25.1393 28.8962 23.3518C28.4803 22.9144 28.4193 22.3661 28.0583 21.8436C27.5805 21.1466 26.6532 20.7505 26.0482 20.1661Z" fill="#42759C"/>
</svg>
