<svg width="111" height="110" viewBox="0 0 111 110" fill="none" xmlns="http://www.w3.org/2000/svg">
<path d="M55.4822 103.125C54.2238 103.123 52.9892 102.782 51.9087 102.137L40.5252 95.1674C38.8249 94.1873 39.6609 93.8347 40.2152 93.6332C42.485 92.8209 43.1613 92.4178 45.5749 90.9939C45.834 90.8505 46.165 90.9028 46.4246 91.063L54.956 96.1127C55.2731 96.2953 55.7202 96.2953 56.0154 96.1127L89.3566 76.2942C89.6735 76.1058 89.8754 75.7258 89.8754 75.3401V35.2062C89.8754 34.8088 89.6735 34.4345 89.3493 34.2334L56.0227 13.8937C55.7052 13.7017 55.2877 13.7017 54.9704 13.8937L21.6655 34.2405C21.3338 34.4345 21.125 34.8202 21.125 35.2062V75.3401C21.125 75.7296 21.3338 76.0949 21.658 76.2831L30.2365 81.4333C35.309 84.0553 38.3125 81.3968 38.3125 78.2942V38.8276C38.3125 38.2579 38.7523 37.8121 39.2999 37.8121H44.2003C44.7406 37.8121 45.1879 38.2572 45.1879 38.8276V78.294C45.1879 85.29 41.0301 89.3043 34.6178 89.3043C32.6507 89.3043 31.095 89.3043 26.7649 87.0959L17.8308 81.7719C15.6188 80.4502 14.25 77.9808 14.25 75.3363V34.6309C14.25 31.9849 15.6188 29.521 17.8304 28.2034L51.9229 7.82246C54.0771 6.55918 56.9446 6.55918 59.084 7.82246L93.169 28.2034C95.3814 29.5245 96.75 31.99 96.75 34.6309V75.3363C96.75 77.9808 95.3814 80.4388 93.169 81.7715L59.084 102.133C57.9995 102.781 56.7597 103.122 55.4966 103.121L55.4822 103.125Z" fill="#7FC728"/>
<path d="M66.015 75.6246C52.1339 75.6246 47.9668 68.8334 47.9668 62.8906C47.9668 62.3257 48.4068 61.8746 48.9469 61.8746H53.3557C53.846 61.8746 54.2639 62.2398 54.3358 62.7374C54.9984 67.3784 57.934 69.4298 66.007 69.4298C73.1826 69.4298 76.1242 67.207 76.1242 63.2672C76.1242 60.9916 75.3802 59.3089 64.2204 58.176C54.8904 57.2219 49.1194 55.0881 49.1194 47.3705C49.1194 40.2516 54.9194 36.0933 64.6385 36.0933C74.5488 36.0933 81.0658 39.1011 81.6483 47.0136C81.6702 47.3009 81.5692 47.5784 81.3817 47.7965C81.1945 48.0038 80.9352 48.1246 80.6613 48.1246H76.2374C75.7764 48.1246 75.3729 47.789 75.2795 47.3269C74.3339 43.6846 71.6336 42.2991 64.6312 42.2991C56.7924 42.2991 55.8771 45.039 55.8771 47.1561C55.8771 49.7262 56.958 50.4735 67.5419 51.9196C78.0178 53.3511 82.9962 55.3822 82.9962 62.9952C82.9962 70.6825 76.807 75.6244 66.0074 75.6244L66.015 75.6246Z" fill="#7FC728"/>
</svg>
