<svg width="111" height="110" viewBox="0 0 111 110" fill="none" xmlns="http://www.w3.org/2000/svg">
<path d="M51.3885 47.8405C49.9864 48.65 48.8559 49.857 48.1399 51.309C47.4238 52.761 47.1544 54.3928 47.3657 55.9979C47.5771 57.603 48.2596 59.1094 49.3271 60.3266C50.3946 61.5438 51.799 62.4171 53.3628 62.836C54.9267 63.255 56.5796 63.2009 58.1126 62.6804C59.6456 62.16 60.9899 61.1966 61.9754 59.9122C62.9609 58.6277 63.5434 57.0799 63.6492 55.4644C63.755 53.8489 63.3794 52.2383 62.5699 50.8363C61.4843 48.9564 59.6964 47.5847 57.5996 47.0229C55.5027 46.4611 53.2685 46.7552 51.3885 47.8405ZM88.0767 56.7215C87.5393 56.1074 86.9723 55.4916 86.3756 54.8741C86.7924 54.436 87.1957 53.9983 87.5856 53.561C94.9456 45.2914 98.0519 36.9982 95.1736 32.0123C92.4137 27.2319 84.2038 25.8073 73.9256 27.8058C72.9133 28.0038 71.9065 28.2272 70.9052 28.476C70.7136 27.8153 70.5097 27.1583 70.2937 26.5052C66.8068 15.9978 61.1744 9.16304 55.4175 9.16667C49.8973 9.16919 44.562 15.57 41.1585 25.4719C40.8237 26.4487 40.5139 27.4337 40.2292 28.4268C39.5598 28.2626 38.8876 28.1108 38.2125 27.9717C27.3684 25.7452 18.634 27.2116 15.7613 32.2003C13.0068 36.9841 15.8875 44.8036 22.767 52.6974C23.4493 53.4785 24.1509 54.242 24.8718 54.988C24.0219 55.8634 23.2172 56.7383 22.4671 57.6083C15.7544 65.3908 13.0383 73.0824 15.7885 77.8456C18.6287 82.7657 27.2401 84.374 37.7216 82.3114C38.571 82.143 39.4157 81.9536 40.2558 81.7431C40.5635 82.8173 40.9011 83.8822 41.2685 84.9377C44.657 94.6409 49.9624 100.836 55.463 100.834C61.1438 100.83 66.8386 94.1746 70.2889 84.0643C70.5614 83.2654 70.8194 82.4356 71.0638 81.5813C72.149 81.8513 73.2411 82.0908 74.3402 82.3C84.439 84.2106 92.4559 82.7079 95.201 77.9412C98.0358 73.0175 95.1131 64.7594 88.0767 56.7215ZM19.1548 34.1543C20.9233 31.0834 28.0613 29.8854 37.4243 31.8076C38.0227 31.9306 38.6314 32.0681 39.2502 32.2201C38.3361 36.2638 37.6911 40.3637 37.3195 44.4928C33.9411 46.8694 30.7201 49.4623 27.6766 52.2551C27.0061 51.5616 26.3535 50.8514 25.7187 50.1243C19.8242 43.3607 17.4948 37.037 19.1548 34.1543ZM36.9687 60.408C34.6286 58.6361 32.4538 56.8209 30.48 54.9951C32.4525 53.1807 34.6286 51.3716 36.9639 49.6044C36.88 51.4046 36.8384 53.2061 36.8391 55.0091C36.8404 56.8094 36.8836 58.609 36.9687 60.408ZM36.9659 78.4691C32.9933 79.3524 28.8921 79.4972 24.8672 78.896C23.7638 78.8101 22.6898 78.4988 21.7115 77.9815C20.7332 77.4641 19.8713 76.7515 19.1793 75.8879C17.5106 72.9974 19.6915 66.8221 25.4324 60.1661C26.1542 59.3319 26.8996 58.5195 27.6687 57.7289C30.7126 60.5363 33.9388 63.1393 37.3263 65.5209C37.703 69.7027 38.3556 73.8551 39.2798 77.9509C38.5129 78.1427 37.7416 78.3154 36.9659 78.4691ZM69.5127 41.6221C67.9755 40.6535 66.4193 39.7159 64.8441 38.8095C63.294 37.9173 61.7253 37.0586 60.1379 36.2334C62.8558 35.0906 65.5275 34.1146 68.1067 33.3192C68.7147 36.0614 69.184 38.8326 69.5127 41.6221ZM44.8618 26.7447C47.7779 18.2603 52.0926 13.0839 55.4196 13.0825C58.9629 13.0808 63.5667 18.6662 66.577 27.7383C66.7725 28.3297 66.9574 28.9245 67.1316 29.5225C63.1767 30.7492 59.3073 32.2362 55.5488 33.9739C51.8059 32.2158 47.9486 30.7122 44.0033 29.4733C44.2671 28.5569 44.5532 27.6474 44.8618 26.7447ZM43.0268 33.2704C45.7171 34.1174 48.3631 35.0995 50.9545 36.2129C47.7436 37.8699 44.6157 39.6749 41.5707 41.6277C41.9386 38.7035 42.4281 35.9018 43.0268 33.2704ZM41.5774 68.3819C43.0959 69.3539 44.6365 70.29 46.1994 71.1902C47.7936 72.1081 49.409 72.9874 51.0457 73.8282C48.4344 74.9802 45.7658 75.9974 43.0503 76.8757C42.4446 74.2078 41.9498 71.3569 41.5774 68.3819ZM66.5827 82.7988C65.3633 86.6814 63.4398 90.3065 60.9081 93.4928C60.2825 94.4056 59.476 95.1806 58.5392 95.7695C57.6023 96.3583 56.5547 96.7489 55.4609 96.9169C52.1233 96.9188 47.8633 91.9439 44.9655 83.646C44.6242 82.665 44.3102 81.675 44.0236 80.6761C47.9877 79.3972 51.8606 77.851 55.6156 76.0483C59.4051 77.7972 63.3053 79.2953 67.291 80.5331C67.0734 81.2938 66.8373 82.0491 66.5827 82.7988ZM68.2429 76.7294C65.6341 75.9228 62.9236 74.9304 60.1665 73.7709C61.7207 72.9529 63.2863 72.089 64.8631 71.1793C66.4812 70.2449 68.058 69.2872 69.5936 68.3061C69.2877 71.1351 68.8369 73.9465 68.2429 76.7294ZM70.2884 54.9922C70.2918 57.7756 70.2049 60.5568 70.0277 63.3358C67.7696 64.8641 65.3856 66.3563 62.9052 67.7882C60.4351 69.2144 57.9876 70.525 55.5868 71.7111C53.0604 70.5004 50.5828 69.1956 48.1538 67.7969C45.7385 66.4067 43.3785 64.9262 41.074 63.3557C40.8633 60.5775 40.7572 57.7944 40.7556 55.0061C40.7537 52.2199 40.8581 49.4374 41.0676 46.6569C43.3251 45.1152 45.6917 43.6242 48.1387 42.2115C50.5968 40.7921 53.0749 39.4871 55.5393 38.3043C58.0346 39.517 60.4849 40.8166 62.8902 42.2031C65.3038 43.5903 67.6703 45.055 69.9897 46.597C70.1889 49.3911 70.2883 52.1895 70.2884 54.9922ZM74.6734 31.65C83.4795 29.9371 90.1193 31.0894 91.7826 33.9702C93.5545 37.0393 91.015 43.8175 84.6609 50.9577C84.3098 51.3516 83.9453 51.7474 83.5679 52.1446C80.4718 49.3459 77.1887 46.7613 73.7414 44.4086C73.3935 40.3247 72.7727 36.2687 71.8831 32.2677C72.8313 32.0344 73.7614 31.8285 74.6734 31.65ZM74.0782 49.4549C76.4034 51.1526 78.6391 52.9698 80.7761 54.8992C78.6485 56.8602 76.4199 58.7088 74.0994 60.4372C74.1705 58.6225 74.2054 56.8069 74.2043 54.9903C74.2035 53.1448 74.1614 51.2996 74.0782 49.4549ZM91.807 75.9867C90.1411 78.8795 83.7042 80.0858 75.0676 78.4518C74.0779 78.265 73.0623 78.0426 72.0209 77.7846C72.8891 73.7322 73.4824 69.6257 73.7967 65.4932C77.2382 63.0995 80.511 60.4718 83.5917 57.6288C84.1308 58.1888 84.6436 58.7463 85.13 59.3011C87.8849 62.2965 90.0648 65.7732 91.5608 69.5579C92.0392 70.5557 92.3078 71.641 92.3502 72.7468C92.3925 73.8525 92.2076 74.9552 91.807 75.9867Z" fill="#01D1F7"/>
</svg>
